# xmcd
#
# Track frame offsets:
#	150
#	10753
#	21683
#	34713
#	44998
#	56140
#	67680
#	78825
#	89165
#	99398
#	110218
#	121263
#	130363
#	142763
#	153905
#	165433
#	175485
#	187223
#	197830
#
# Disc length: 2752 seconds
#
# Revision: 2
# Processed by: cddbd v1.5.2PL0 Copyright (c) Steve Scherf et al.
# Submitted via: EasyCDDAExtractor 16.1.0.1
#
DISCID=0f0abe13
DTITLE=Patsy Cline - Thinking Of You
DYEAR=1900
DGENRE=Country
TTITLE0=I Don't Wanna
TTITLE1=I Can't Forget
TTITLE2=If I Could See The World
TTITLE3=Too Many Secrets
TTITLE4=Hidin' Out
TTITLE5=Let The Teardrops Fall
TTITLE6=Hungry For Love
TTITLE7=Walkin' Dream
TTITLE8=Three Cigarettes (In An Ashtray)
TTITLE9=I Cried All The Way To The Altar
TTITLE10=Stop The World And Let Me Off
TTITLE11=I Love You Honey
TTITLE12=Fingerprints
TTITLE13=Just Out Of Reach
TTITLE14=Never No More
TTITLE15=Pick Me Up On Your Way Down
TTITLE16=Today Tomorrow Forever
TTITLE17=Honky Tonk Merry-Go Round
TTITLE18=Ain't No Wheels On This Ship
EXTD=
EXTT0=
EXTT1=
EXTT2=
EXTT3=
EXTT4=
EXTT5=
EXTT6=
EXTT7=
EXTT8=
EXTT9=
EXTT10=
EXTT11=
EXTT12=
EXTT13=
EXTT14=
EXTT15=
EXTT16=
EXTT17=
EXTT18=
PLAYORDER=
